<svg width="18" height="17" viewBox="0 0 18 17" fill="none" xmlns="http://www.w3.org/2000/svg">
<path d="M2.69043 10.9614L12.1904 1.46143C12.9717 0.680176 14.2529 0.680176 15.0342 1.46143L16.2529 2.68018C16.3467 2.77393 16.4404 2.89893 16.5029 2.99268C17.0342 3.77393 16.9404 4.83643 16.2529 5.52393L6.75293 15.0239C6.72168 15.0552 6.65918 15.0864 6.62793 15.1489C6.31543 15.3989 5.97168 15.5864 5.59668 15.7114L1.81543 16.8052C1.56543 16.8989 1.28418 16.8364 1.09668 16.6177C0.87793 16.4302 0.81543 16.1489 0.87793 15.8989L2.00293 12.1177C2.12793 11.6802 2.37793 11.2739 2.69043 10.9614ZM3.44043 12.5552L2.72168 14.9927L5.15918 14.2739C5.34668 14.2114 5.53418 14.1177 5.69043 13.9614L12.8467 6.80518L10.8779 4.86768L3.75293 12.0239C3.72168 12.0239 3.72168 12.0552 3.69043 12.0864C3.56543 12.2114 3.50293 12.3677 3.44043 12.5552Z" fill="currentColor"/>
</svg>