<svg width="29" height="30" viewBox="0 0 29 30" fill="none" xmlns="http://www.w3.org/2000/svg">
<path d="M14.9998 12.2436V17.8591H22.8034C22.4607 19.665 21.4324 21.1942 19.8902 22.2223L24.596 25.8737C27.3379 23.3429 28.9197 19.6256 28.9197 15.2097C28.9197 14.1815 28.8274 13.1928 28.656 12.2438L14.9998 12.2436Z" fill="#4285F4"/>
<path d="M6.87366 17.6399L5.81231 18.4523L2.05542 21.3786C4.44133 26.1109 9.33143 29.38 14.9996 29.38C18.9145 29.38 22.1967 28.0882 24.5959 25.8737L19.89 22.2223C18.5981 23.0923 16.9504 23.6196 14.9996 23.6196C11.2296 23.6196 8.02649 21.0755 6.87959 17.6482L6.87366 17.6399Z" fill="#34A853"/>
<path d="M2.05534 8.38143C1.06676 10.3323 0.5 12.5337 0.5 14.88C0.5 17.2263 1.06676 19.4277 2.05534 21.3786C2.05534 21.3916 6.87998 17.6349 6.87998 17.6349C6.58998 16.7649 6.41857 15.8422 6.41857 14.8798C6.41857 13.9174 6.58998 12.9948 6.87998 12.1248L2.05534 8.38143Z" fill="#FBBC05"/>
<path d="M14.9999 6.15365C17.1354 6.15365 19.0335 6.89181 20.5494 8.31547L24.7017 4.16324C22.1839 1.81691 18.9149 0.380005 14.9999 0.380005C9.33172 0.380005 4.44133 3.63591 2.05542 8.38139L6.87991 12.125C8.02666 8.69772 11.2299 6.15365 14.9999 6.15365Z" fill="#EA4335"/>
</svg>
