<svg width="18" height="19" viewBox="0 0 18 19" fill="none" xmlns="http://www.w3.org/2000/svg">
<circle cx="9" cy="9.38281" r="9" fill="currentColor"/>
<path d="M9.62649 8.75665H12.5415C12.8876 8.75665 13.1678 9.03681 13.1673 9.38249C13.1673 9.7286 12.8871 10.0088 12.5415 10.0083C12.4056 10.0088 9.62649 10.0083 9.62649 10.0083V12.9233C9.62649 13.2694 9.34632 13.5496 9.00065 13.5492C8.65454 13.5492 8.37437 13.269 8.37481 12.9233C8.37437 12.7874 8.37481 10.0083 8.37481 10.0083H5.45983C5.11371 10.0083 4.83354 9.72816 4.83398 9.38249C4.83398 9.03637 5.11415 8.7562 5.45983 8.75665C5.5957 8.7562 8.37481 8.75665 8.37481 8.75665V5.84166C8.37481 5.49555 8.65498 5.21538 9.00065 5.21582C9.34677 5.21582 9.62693 5.49599 9.62649 5.84166C9.62693 5.97754 9.62649 8.75665 9.62649 8.75665Z" fill="white"/>
</svg>