<svg width="30" height="38" viewBox="0 0 30 38" fill="none" xmlns="http://www.w3.org/2000/svg">
<path d="M21.625 19.0808C21.625 18.8123 21.5283 18.5652 21.3242 18.3718L12.8057 10.0359C12.623 9.85327 12.3867 9.75659 12.1074 9.75659C11.5488 9.75659 11.1191 10.1755 11.1191 10.7341C11.1191 11.0027 11.2373 11.2498 11.4092 11.4324L19.2295 19.0808L11.4092 26.7292C11.2373 26.9119 11.1191 27.1482 11.1191 27.4275C11.1191 27.9861 11.5488 28.405 12.1074 28.405C12.3867 28.405 12.623 28.3083 12.8057 28.115L21.3242 19.7898C21.5283 19.5857 21.625 19.3494 21.625 19.0808Z" fill="#535353"/>
</svg>
