<svg width="15" height="16" viewBox="0 0 15 16" fill="none" xmlns="http://www.w3.org/2000/svg">
<path d="M5.46094 12.5C5.46094 12.7812 5.21094 13 4.96094 13C4.67969 13 4.46094 12.7812 4.46094 12.5V6C4.46094 5.75 4.67969 5.5 4.96094 5.5C5.21094 5.5 5.46094 5.75 5.46094 6V12.5ZM7.96094 12.5C7.96094 12.7812 7.71094 13 7.46094 13C7.17969 13 6.96094 12.7812 6.96094 12.5V6C6.96094 5.75 7.17969 5.5 7.46094 5.5C7.71094 5.5 7.96094 5.75 7.96094 6V12.5ZM10.4609 12.5C10.4609 12.7812 10.2109 13 9.96094 13C9.67969 13 9.46094 12.7812 9.46094 12.5V6C9.46094 5.75 9.67969 5.5 9.96094 5.5C10.2109 5.5 10.4609 5.75 10.4609 6V12.5ZM10.3672 0.78125L11.5234 2.5H13.7109C14.1172 2.5 14.4609 2.84375 14.4609 3.25C14.4609 3.6875 14.1172 4 13.7109 4H13.4609V13.5C13.4609 14.9062 12.3359 16 10.9609 16H3.96094C2.55469 16 1.46094 14.9062 1.46094 13.5V4H1.21094C0.773438 4 0.460938 3.6875 0.460938 3.25C0.460938 2.84375 0.773438 2.5 1.21094 2.5H3.36719L4.52344 0.78125C4.83594 0.3125 5.39844 0 5.99219 0H8.89844C9.49219 0 10.0547 0.3125 10.3672 0.78125ZM5.17969 2.5H9.71094L9.11719 1.625C9.08594 1.5625 8.99219 1.5 8.89844 1.5H5.99219C5.89844 1.5 5.80469 1.5625 5.77344 1.625L5.17969 2.5ZM2.96094 13.5C2.96094 14.0625 3.39844 14.5 3.96094 14.5H10.9609C11.4922 14.5 11.9609 14.0625 11.9609 13.5V4H2.96094V13.5Z" fill="#E22C06"/>
</svg>
